<svg width="338" height="228" viewBox="0 0 338 228" fill="none" xmlns="http://www.w3.org/2000/svg">
<g filter="url(#filter0_d_22_38)">
<g clip-path="url(#clip0_22_38)">
<rect width="330" height="228" fill="#423424"/>
<g filter="url(#filter1_dd_22_38)">
<path d="M63.3127 173.58C64.8327 172.44 66.416 170.16 68.0627 166.74C69.7093 163.193 70.596 160.343 70.7227 158.19C71.9893 154.643 73.0027 151.92 73.7627 150.02C75.536 145.587 77.056 143.243 78.3227 142.99C79.336 142.99 79.8427 145.333 79.8427 150.02L80.9827 162.56C80.9827 164.713 81.5527 167.057 82.6927 169.59C83.326 171.997 83.9593 173.39 84.5927 173.77L87.6327 174.53L91.0527 173.96L95.4227 173.01C98.716 170.097 102.326 163.51 106.253 153.25C109.419 145.017 111.446 138.493 112.333 133.68C113.473 131.907 114.613 128.803 115.753 124.37L119.743 108.98C121.516 102.14 122.403 94.16 122.403 85.04L122.593 83.9V82.95C122.593 81.43 122.276 80.48 121.643 80.1C116.829 82.5067 114.423 87.0667 114.423 93.78L110.243 110.69L106.253 125.89L102.073 134.63L100.363 139.19L98.4627 145.46C97.956 146.98 96.816 150.02 95.0427 154.58L93.9027 157.43L93.7127 157.62C93.4593 158.127 93.0793 158.443 92.5727 158.57C91.686 158.57 91.2427 156.607 91.2427 152.68V144.13C91.2427 142.863 91.3693 141.597 91.6227 140.33L90.8627 131.59C90.6093 128.297 91.7493 120.253 94.2827 107.46L96.7527 95.11L96.9427 92.45V91.5C96.9427 88.84 95.7393 87.51 93.3327 87.51C91.4327 87.51 89.406 88.2067 87.2527 89.6C85.226 90.8667 83.8327 92.3233 83.0727 93.97C82.186 95.9967 81.3627 99.29 80.6027 103.85L79.0827 112.59L76.8027 119.81C75.916 123.23 74.5227 128.55 72.6227 135.77C72.116 136.277 71.0393 138.493 69.3927 142.42L63.6927 156.1C62.6793 158.38 61.7293 159.52 60.8427 159.52C59.7027 159.52 58.7527 155.973 57.9927 148.88C57.9927 142.42 57.486 138.303 56.4727 136.53L55.9027 134.25C55.776 134.123 55.7127 132.857 55.7127 130.45L55.5227 123.04V119.43C55.5227 115.503 55.2693 113.097 54.7627 112.21L56.2827 99.67C55.776 98.6567 55.586 97.39 55.7127 95.87L56.0927 88.84L56.6627 83.14C56.6627 80.3533 56.0293 78.39 54.7627 77.25L53.6227 74.97C52.736 73.07 50.9627 71.8033 48.3027 71.17H47.5427C45.136 71.17 43.3627 73.5133 42.2227 78.2C41.336 81.7467 40.8927 84.9767 40.8927 87.89L38.8027 97.39L38.2327 110.5L38.4227 116.96L38.9927 122.09C40.6393 122.723 41.6527 123.99 42.0327 125.89L42.9827 131.02C42.9827 133.68 43.6793 139.127 45.0727 147.36C46.5927 156.1 47.9227 160.85 49.0627 161.61L48.3027 164.84C48.3027 165.853 48.6193 167.373 49.2527 169.4L52.1027 178.52C52.9893 179.787 54.446 180.42 56.4727 180.42C61.0327 180.42 63.3127 178.14 63.3127 173.58ZM148.664 173.58C150.184 172.44 151.768 170.16 153.414 166.74C155.061 163.193 155.948 160.343 156.074 158.19C157.341 154.643 158.354 151.92 159.114 150.02C160.888 145.587 162.408 143.243 163.674 142.99C164.688 142.99 165.194 145.333 165.194 150.02L166.334 162.56C166.334 164.713 166.904 167.057 168.044 169.59C168.678 171.997 169.311 173.39 169.944 173.77L172.984 174.53L176.404 173.96L180.774 173.01C184.068 170.097 187.678 163.51 191.604 153.25C194.771 145.017 196.798 138.493 197.684 133.68C198.824 131.907 199.964 128.803 201.104 124.37L205.094 108.98C206.868 102.14 207.754 94.16 207.754 85.04L207.944 83.9V82.95C207.944 81.43 207.628 80.48 206.994 80.1C202.181 82.5067 199.774 87.0667 199.774 93.78L195.594 110.69L191.604 125.89L187.424 134.63L185.714 139.19L183.814 145.46C183.308 146.98 182.168 150.02 180.394 154.58L179.254 157.43L179.064 157.62C178.811 158.127 178.431 158.443 177.924 158.57C177.038 158.57 176.594 156.607 176.594 152.68V144.13C176.594 142.863 176.721 141.597 176.974 140.33L176.214 131.59C175.961 128.297 177.101 120.253 179.634 107.46L182.104 95.11L182.294 92.45V91.5C182.294 88.84 181.091 87.51 178.684 87.51C176.784 87.51 174.758 88.2067 172.604 89.6C170.578 90.8667 169.184 92.3233 168.424 93.97C167.538 95.9967 166.714 99.29 165.954 103.85L164.434 112.59L162.154 119.81C161.268 123.23 159.874 128.55 157.974 135.77C157.468 136.277 156.391 138.493 154.744 142.42L149.044 156.1C148.031 158.38 147.081 159.52 146.194 159.52C145.054 159.52 144.104 155.973 143.344 148.88C143.344 142.42 142.838 138.303 141.824 136.53L141.254 134.25C141.128 134.123 141.064 132.857 141.064 130.45L140.874 123.04V119.43C140.874 115.503 140.621 113.097 140.114 112.21L141.634 99.67C141.128 98.6567 140.938 97.39 141.064 95.87L141.444 88.84L142.014 83.14C142.014 80.3533 141.381 78.39 140.114 77.25L138.974 74.97C138.088 73.07 136.314 71.8033 133.654 71.17H132.894C130.488 71.17 128.714 73.5133 127.574 78.2C126.688 81.7467 126.244 84.9767 126.244 87.89L124.154 97.39L123.584 110.5L123.774 116.96L124.344 122.09C125.991 122.723 127.004 123.99 127.384 125.89L128.334 131.02C128.334 133.68 129.031 139.127 130.424 147.36C131.944 156.1 133.274 160.85 134.414 161.61L133.654 164.84C133.654 165.853 133.971 167.373 134.604 169.4L137.454 178.52C138.341 179.787 139.798 180.42 141.824 180.42C146.384 180.42 148.664 178.14 148.664 173.58ZM234.016 173.58C235.536 172.44 237.119 170.16 238.766 166.74C240.412 163.193 241.299 160.343 241.426 158.19C242.692 154.643 243.706 151.92 244.466 150.02C246.239 145.587 247.759 143.243 249.026 142.99C250.039 142.99 250.546 145.333 250.546 150.02L251.686 162.56C251.686 164.713 252.256 167.057 253.396 169.59C254.029 171.997 254.662 173.39 255.296 173.77L258.336 174.53L261.756 173.96L266.126 173.01C269.419 170.097 273.029 163.51 276.956 153.25C280.122 145.017 282.149 138.493 283.036 133.68C284.176 131.907 285.316 128.803 286.456 124.37L290.446 108.98C292.219 102.14 293.106 94.16 293.106 85.04L293.296 83.9V82.95C293.296 81.43 292.979 80.48 292.346 80.1C287.532 82.5067 285.126 87.0667 285.126 93.78L280.946 110.69L276.956 125.89L272.776 134.63L271.066 139.19L269.166 145.46C268.659 146.98 267.519 150.02 265.746 154.58L264.606 157.43L264.416 157.62C264.162 158.127 263.782 158.443 263.276 158.57C262.389 158.57 261.946 156.607 261.946 152.68V144.13C261.946 142.863 262.072 141.597 262.326 140.33L261.566 131.59C261.312 128.297 262.452 120.253 264.986 107.46L267.456 95.11L267.646 92.45V91.5C267.646 88.84 266.442 87.51 264.036 87.51C262.136 87.51 260.109 88.2067 257.956 89.6C255.929 90.8667 254.536 92.3233 253.776 93.97C252.889 95.9967 252.066 99.29 251.306 103.85L249.786 112.59L247.506 119.81C246.619 123.23 245.226 128.55 243.326 135.77C242.819 136.277 241.742 138.493 240.096 142.42L234.396 156.1C233.382 158.38 232.432 159.52 231.546 159.52C230.406 159.52 229.456 155.973 228.696 148.88C228.696 142.42 228.189 138.303 227.176 136.53L226.606 134.25C226.479 134.123 226.416 132.857 226.416 130.45L226.226 123.04V119.43C226.226 115.503 225.972 113.097 225.466 112.21L226.986 99.67C226.479 98.6567 226.289 97.39 226.416 95.87L226.796 88.84L227.366 83.14C227.366 80.3533 226.732 78.39 225.466 77.25L224.326 74.97C223.439 73.07 221.666 71.8033 219.006 71.17H218.246C215.839 71.17 214.066 73.5133 212.926 78.2C212.039 81.7467 211.596 84.9767 211.596 87.89L209.506 97.39L208.936 110.5L209.126 116.96L209.696 122.09C211.342 122.723 212.356 123.99 212.736 125.89L213.686 131.02C213.686 133.68 214.382 139.127 215.776 147.36C217.296 156.1 218.626 160.85 219.766 161.61L219.006 164.84C219.006 165.853 219.322 167.373 219.956 169.4L222.806 178.52C223.692 179.787 225.149 180.42 227.176 180.42C231.736 180.42 234.016 178.14 234.016 173.58Z" fill="url(#paint0_radial_22_38)" shape-rendering="crispEdges"/>
</g>
</g>
<rect x="0.5" y="0.5" width="329" height="227" stroke="#972020"/>
</g>
<defs>
<filter id="filter0_d_22_38" x="0" y="0" width="338" height="236" filterUnits="userSpaceOnUse" color-interpolation-filters="sRGB">
<feFlood flood-opacity="0" result="BackgroundImageFix"/>
<feColorMatrix in="SourceAlpha" type="matrix" values="0 0 0 0 0 0 0 0 0 0 0 0 0 0 0 0 0 0 127 0" result="hardAlpha"/>
<feOffset dx="4" dy="4"/>
<feGaussianBlur stdDeviation="2"/>
<feComposite in2="hardAlpha" operator="out"/>
<feColorMatrix type="matrix" values="0 0 0 0 0 0 0 0 0 0 0 0 0 0 0 0 0 0 0.25 0"/>
<feBlend mode="normal" in2="BackgroundImageFix" result="effect1_dropShadow_22_38"/>
<feBlend mode="normal" in="SourceGraphic" in2="effect1_dropShadow_22_38" result="shape"/>
</filter>
<filter id="filter1_dd_22_38" x="-10.7673" y="22.1699" width="353.063" height="207.25" filterUnits="userSpaceOnUse" color-interpolation-filters="sRGB">
<feFlood flood-opacity="0" result="BackgroundImageFix"/>
<feColorMatrix in="SourceAlpha" type="matrix" values="0 0 0 0 0 0 0 0 0 0 0 0 0 0 0 0 0 0 127 0" result="hardAlpha"/>
<feOffset/>
<feGaussianBlur stdDeviation="24.5"/>
<feComposite in2="hardAlpha" operator="out"/>
<feColorMatrix type="matrix" values="0 0 0 0 1 0 0 0 0 0.993333 0 0 0 0 0.993333 0 0 0 1 0"/>
<feBlend mode="normal" in2="BackgroundImageFix" result="effect1_dropShadow_22_38"/>
<feColorMatrix in="SourceAlpha" type="matrix" values="0 0 0 0 0 0 0 0 0 0 0 0 0 0 0 0 0 0 127 0" result="hardAlpha"/>
<feOffset dy="4"/>
<feGaussianBlur stdDeviation="2"/>
<feComposite in2="hardAlpha" operator="out"/>
<feColorMatrix type="matrix" values="0 0 0 0 0 0 0 0 0 0 0 0 0 0 0 0 0 0 0.25 0"/>
<feBlend mode="normal" in2="effect1_dropShadow_22_38" result="effect2_dropShadow_22_38"/>
<feBlend mode="normal" in="SourceGraphic" in2="effect2_dropShadow_22_38" result="shape"/>
</filter>
<radialGradient id="paint0_radial_22_38" cx="0" cy="0" r="1" gradientUnits="userSpaceOnUse" gradientTransform="translate(168.975 128.402) rotate(0.992752) scale(129.044 111.556)">
<stop stop-color="#D704FA" stop-opacity="0"/>
<stop offset="0.865826" stop-color="#D704FA"/>
</radialGradient>
<clipPath id="clip0_22_38">
<rect width="330" height="228" fill="white"/>
</clipPath>
</defs>
</svg>
