<svg width="48" height="45" viewBox="0 0 48 45" fill="none" xmlns="http://www.w3.org/2000/svg">
<g clip-path="url(#clip0_17_503)">
<g filter="url(#filter0_dd_17_503)">
<path d="M40 5H8C6.895 5 6 5.83112 6 6.85724V36.5731C6 37.5993 6.895 38.4304 8 38.4304H40C41.105 38.4304 42 37.5993 42 36.5731V6.85724C42 5.83112 41.105 5 40 5Z" fill="url(#paint0_linear_17_503)"/>
<path d="M8 6H40C40.6238 6 41 6.45185 41 6.85724V36.5731C41 36.9785 40.6238 37.4304 40 37.4304H8C7.37626 37.4304 7 36.9785 7 36.5731V6.85724C7 6.45185 7.37626 6 8 6Z" stroke="url(#paint1_linear_17_503)" stroke-width="2"/>
</g>
<path opacity="0.05" d="M36.937 15.9667C36.983 15.8265 37.005 15.6965 36.999 15.5804C36.984 15.2442 36.735 15 36.149 15H31.995C31.334 15 31.029 15.3714 30.851 15.7438C30.851 15.7438 29.131 19.1649 28.729 19.8753C28.119 20.4705 27.724 21.1391 27.394 21.1391C27.217 21.1391 27 21.3016 27 20.7565V15.9416C27 15.2972 26.827 15 26.268 15H19.619C19.212 15 19 15.2972 19 15.5952C19 16.2146 19.898 18.2205 20 19.956V20.7872C20 21.3778 20.101 21.9387 19.863 21.9387C19.573 21.9387 18.559 19.8567 17.702 15.9918C17.448 15.273 17.194 15 16.533 15H11.89C11.127 15 11 15.3473 11 15.7188C11 17.2157 11.844 21.5616 15.119 25.7237C17.494 28.7417 21.379 30.7866 24.149 30.7866C25.386 30.7866 26.999 30.768 26.999 29.0407C26.999 27.3135 26.979 26.4081 27.163 26.4081C27.401 26.4081 27.513 26.5093 29.013 28.1344C30.744 30.0074 31.167 30.7866 32.159 30.7866H36.029C36.637 30.7866 36.986 30.5498 37 30.0901C37 28.9061 36.626 28.2208 34.75 25.6671C34.135 24.9771 33 23.8135 33 23.3455C33 22.819 36.189 18.8176 36.937 15.9667Z" fill="black"/>
<path opacity="0.07" d="M35.937 15.9667C35.983 15.8265 36.005 15.6965 35.999 15.5804C35.984 15.2442 35.735 15 35.149 15H31.763C31.102 15 30.797 15.3714 30.619 15.7438C30.619 15.7438 28.943 19.0144 27.801 20.3981C27.191 20.9933 26.839 21.3202 26.509 21.3202C26.332 21.3202 26 21.3026 26 20.7575V15.9426C26 15.2981 25.827 15.0009 25.268 15.0009H19.619C19.212 15.0009 19 15.2981 19 15.5962C19 16.2156 19.898 17.2928 20 19.0284V21.1261C20 21.83 19.974 22.1847 19.69 22.1847C19.1 22.1847 17.717 19.7508 16.702 15.9927C16.448 15.2739 16.194 15.0009 15.533 15.0009H11.89C11.127 15.0009 11 15.3482 11 15.7197C11 16.8034 11.722 20.7853 14.997 24.9474C17.372 27.9654 20.879 29.8589 23.649 29.8589C25.106 29.8589 25.999 29.6536 25.999 28.478V26.4518C26 25.7079 26.081 25.3476 26.44 25.3476C26.75 25.3476 27.194 25.5139 28.694 27.1389C30.424 29.0129 30.793 29.8579 31.785 29.8579H35.029C35.637 29.8579 35.986 29.6211 36 29.1615C36 28.2459 35.313 27.0851 33.75 25.2083C33.135 24.5184 32 23.4189 32 22.8868C32 22.3547 34.845 19.2345 35.937 15.9667Z" fill="black"/>
<path d="M34.937 15.9667C34.983 15.8265 35.005 15.6965 34.999 15.5804C34.984 15.2442 34.735 15 34.149 15H31.531C30.87 15 30.565 15.3714 30.387 15.7438C30.387 15.7438 28.755 18.8631 26.874 20.92C26.264 21.5152 25.954 21.5003 25.624 21.5003C25.447 21.5003 25 21.3016 25 20.7565V15.9416C25 15.2972 24.827 15 24.268 15H19.619C19.212 15 19 15.2972 19 15.5952C19 16.2146 19.898 16.3632 20 18.0988V21.4632C20 22.2804 19.847 22.429 19.517 22.429C18.627 22.429 16.875 19.6431 15.702 15.9918C15.448 15.273 15.194 15 14.533 15H11.89C11.127 15 11 15.3473 11 15.7188C11 16.3883 11.6 20.0081 14.875 24.1701C17.25 27.1882 20.379 28.9293 23.149 28.9293C24.827 28.9293 24.999 28.5328 24.999 27.9134V25.1535C25 24.4097 25.183 24.2862 25.717 24.2862C26.098 24.2862 26.875 24.5184 28.375 26.1435C30.105 28.0174 30.419 28.9293 31.411 28.9293H34.029C34.637 28.9293 34.986 28.6925 35 28.2329C35.003 28.1158 34.985 27.9849 34.944 27.8391C34.75 27.3042 33.86 25.9967 32.75 24.7505C32.135 24.0606 31.528 23.3771 31.249 23.0056C31.062 22.7633 30.991 22.5924 31 22.429C31.009 22.2572 31.105 22.0937 31.249 21.8653C31.223 21.8653 34.607 17.4534 34.937 15.9667Z" fill="white"/>
</g>
<defs>
<filter id="filter0_dd_17_503" x="-2" y="-3" width="48" height="49.4304" filterUnits="userSpaceOnUse" color-interpolation-filters="sRGB">
<feFlood flood-opacity="0" result="BackgroundImageFix"/>
<feColorMatrix in="SourceAlpha" type="matrix" values="0 0 0 0 0 0 0 0 0 0 0 0 0 0 0 0 0 0 127 0" result="hardAlpha"/>
<feOffset dx="-3" dy="-3"/>
<feGaussianBlur stdDeviation="2.5"/>
<feComposite in2="hardAlpha" operator="out"/>
<feColorMatrix type="matrix" values="0 0 0 0 1 0 0 0 0 1 0 0 0 0 1 0 0 0 0.54 0"/>
<feBlend mode="normal" in2="BackgroundImageFix" result="effect1_dropShadow_17_503"/>
<feColorMatrix in="SourceAlpha" type="matrix" values="0 0 0 0 0 0 0 0 0 0 0 0 0 0 0 0 0 0 127 0" result="hardAlpha"/>
<feOffset dy="4"/>
<feGaussianBlur stdDeviation="2"/>
<feComposite in2="hardAlpha" operator="out"/>
<feColorMatrix type="matrix" values="0 0 0 0 0 0 0 0 0 0 0 0 0 0 0 0 0 0 0.25 0"/>
<feBlend mode="normal" in2="effect1_dropShadow_17_503" result="effect2_dropShadow_17_503"/>
<feBlend mode="normal" in="SourceGraphic" in2="effect2_dropShadow_17_503" result="shape"/>
</filter>
<linearGradient id="paint0_linear_17_503" x1="18.188" y1="5.00093" x2="28.0241" y2="37.8028" gradientUnits="userSpaceOnUse">
<stop stop-color="#33BEF0"/>
<stop offset="1" stop-color="#0A85D9"/>
</linearGradient>
<linearGradient id="paint1_linear_17_503" x1="6" y1="5" x2="42" y2="38" gradientUnits="userSpaceOnUse">
<stop stop-color="#F3A03E"/>
<stop offset="1" stop-color="#E07F08"/>
</linearGradient>
<clipPath id="clip0_17_503">
<rect width="48" height="44.5738" rx="11" fill="white"/>
</clipPath>
</defs>
</svg>
